<?xml version="1.0" standalone="no"?>
<!DOCTYPE svg PUBLIC "-//W3C//DTD SVG 20010904//EN"
 "http://www.w3.org/TR/2001/REC-SVG-20010904/DTD/svg10.dtd">
<svg version="1.0" xmlns="http://www.w3.org/2000/svg"
 width="512.000000pt" height="512.000000pt" viewBox="0 0 512.000000 512.000000"
 preserveAspectRatio="xMidYMid meet">
<metadata>
Created by potrace 1.11, written by Peter Selinger 2001-2013
</metadata>
<g transform="translate(0.000000,512.000000) scale(0.100000,-0.100000)"
fill="#000000" stroke="none">
<path d="M1440 4840 l0 -40 -80 0 -80 0 0 -40 0 -40 -40 0 -40 0 0 -40 0 -40
-40 0 -40 0 0 -40 0 -40 -40 0 -40 0 0 -40 0 -40 -40 0 -40 0 0 -80 0 -80 -40
0 -40 0 0 -160 0 -160 40 0 40 0 0 -40 0 -40 -40 0 -40 0 0 -40 0 -40 -80 0
-80 0 0 -40 0 -40 -40 0 -40 0 0 -40 0 -40 -40 0 -40 0 0 -120 0 -120 40 0 40
0 0 -80 0 -80 40 0 40 0 0 -40 0 -40 40 0 40 0 0 -40 0 -40 80 0 80 0 0 -39
c0 -40 0 -40 43 -43 l42 -3 3 -72 3 -73 29 0 30 0 0 75 0 75 165 0 165 0 0 40
0 40 40 0 40 0 0 40 0 40 40 0 40 0 0 40 0 40 40 0 40 0 0 40 0 40 40 0 40 0
0 40 0 40 40 0 40 0 0 -40 0 -40 40 0 40 0 0 -40 0 -40 80 0 80 0 0 -40 0 -40
80 0 80 0 0 -40 0 -40 120 0 120 0 0 -40 0 -40 160 0 160 0 0 -40 0 -40 80 0
80 0 0 -40 0 -40 40 0 40 0 0 -40 0 -40 -40 0 -40 0 0 -40 0 -40 40 0 40 0 0
40 0 40 40 0 40 0 0 40 0 40 80 0 80 0 0 40 0 40 40 0 40 0 0 40 0 40 40 0 40
0 0 -120 0 -120 40 0 40 0 0 -80 0 -80 39 0 38 0 8 -230 c8 -252 6 -260 -46
-260 l-29 0 0 -68 c0 -75 -9 -92 -52 -92 -24 0 -28 -4 -28 -28 0 -36 -16 -52
-52 -52 -24 0 -28 -4 -28 -29 0 -26 4 -30 33 -33 l32 -3 3 -82 3 -83 -41 0
-40 0 0 -40 0 -40 40 0 40 0 0 40 0 40 80 0 80 0 0 40 0 40 40 0 40 0 0 40 0
40 40 0 40 0 0 40 0 40 40 0 40 0 0 40 0 40 40 0 40 0 0 80 0 80 40 0 40 0 0
-120 0 -120 -40 0 -40 0 0 -40 0 -40 -40 0 -40 0 0 -40 0 -40 -40 0 -40 0 0
-40 0 -40 200 0 200 0 0 40 0 40 80 0 80 0 0 40 0 40 40 0 40 0 0 40 0 40 40
0 40 0 0 160 0 160 -40 0 -40 0 0 80 0 80 -40 0 -40 0 0 40 0 40 -40 0 -40 0
0 80 0 80 -40 0 -40 0 0 40 0 40 -40 0 -40 0 0 40 0 40 40 0 40 0 0 80 0 80
40 0 40 0 0 160 0 160 40 0 40 0 0 160 0 160 -40 0 -40 0 0 120 0 120 -40 0
-40 0 0 80 0 80 -40 0 -40 0 0 80 0 80 -40 0 -40 0 0 40 0 40 -40 0 -40 0 0
40 0 40 -40 0 -40 0 0 40 0 40 -40 0 -40 0 0 40 0 40 -80 0 -80 0 0 40 0 40
-80 0 -80 0 0 40 0 40 -200 0 -200 0 0 -40 0 -40 -120 0 -120 0 0 -40 0 -40
-40 0 -40 0 0 40 0 40 -80 0 -80 0 0 40 0 40 -80 0 -80 0 0 40 0 40 -120 0
-120 0 0 40 0 40 -120 0 -120 0 0 40 0 40 -240 0 -240 0 0 -40z"/>
<path d="M1200 2920 l0 -40 240 0 240 0 0 40 0 40 -240 0 -240 0 0 -40z"/>
<path d="M2160 2920 l0 -40 280 0 280 0 0 40 0 40 -280 0 -280 0 0 -40z"/>
<path d="M970 2760 l0 -110 30 0 30 0 0 110 0 110 -30 0 -30 0 0 -110z"/>
<path d="M890 2440 l0 -190 30 0 30 0 0 190 0 190 -30 0 -30 0 0 -190z"/>
<path d="M1760 2520 l0 -40 -40 0 -40 0 0 -40 0 -40 -120 0 -120 0 0 40 0 40
-40 0 -40 0 0 -40 0 -40 40 0 40 0 0 -40 0 -40 120 0 120 0 0 40 0 40 40 0 40
0 0 40 0 40 40 0 40 0 0 -40 0 -40 40 0 40 0 0 -40 0 -40 160 0 160 0 0 40 0
40 40 0 40 0 0 40 0 40 -40 0 -40 0 0 -40 0 -40 -160 0 -160 0 0 40 0 40 -40
0 -40 0 0 40 0 40 -40 0 -40 0 0 -40z"/>
<path d="M970 2160 l0 -70 30 0 30 0 0 70 0 70 -30 0 -30 0 0 -70z"/>
<path d="M1050 2040 c0 -27 3 -30 30 -30 27 0 30 3 30 30 0 27 -3 30 -30 30
-27 0 -30 -3 -30 -30z"/>
<path d="M1130 1960 c0 -27 3 -30 30 -30 27 0 30 3 30 30 0 27 -3 30 -30 30
-27 0 -30 -3 -30 -30z"/>
<path d="M1210 1880 l0 -30 70 0 70 0 0 30 0 30 -70 0 -70 0 0 -30z"/>
<path d="M1370 1800 l0 -30 110 0 110 0 0 30 0 30 -110 0 -110 0 0 -30z"/>
<path d="M3050 1802 c0 -15 -5 -33 -12 -40 -9 -9 -183 -12 -720 -12 l-708 0 0
-30 0 -30 235 0 235 0 0 -45 0 -45 -40 0 -40 0 0 -40 0 -40 -40 0 -40 0 0 -80
0 -80 -40 0 -40 0 0 -120 0 -120 -40 0 -40 0 0 -160 0 -160 -40 0 -40 0 0
-320 0 -320 40 0 40 0 0 -80 0 -80 920 0 920 0 0 40 0 40 -40 0 -40 0 0 40 0
40 -40 0 -40 0 0 80 0 80 -40 0 -40 0 0 160 0 160 40 0 40 0 0 280 0 280 -40
0 -40 0 0 120 0 120 -40 0 -40 0 0 80 0 80 -40 0 -40 0 0 85 0 85 75 0 75 0 0
30 0 30 -150 0 -150 0 0 -28z m-330 -157 l0 -45 -40 0 -40 0 0 -40 0 -40 -40
0 -40 0 0 -40 0 -40 -40 0 -40 0 0 -40 0 -40 -40 0 -40 0 0 40 0 40 -40 0 -40
0 0 125 0 125 200 0 200 0 0 -45z m320 -1365 l0 -40 40 0 40 0 0 -40 0 -40
-80 0 -80 0 0 80 0 80 40 0 40 0 0 -40z"/>
</g>
</svg>
